<svg xmlns="http://www.w3.org/2000/svg" id="Layer_1" data-name="Layer 1" viewBox="0 0 150 150"><defs><style>.cls-1{fill:none;stroke:#fff;stroke-miterlimit:10;stroke-width:3px;}</style></defs><title>BACities</title><line id="Line_77" data-name="Line 77" class="cls-1" x1="56" y1="1.65" x2="28" y2="1.65"/><line id="Line_77-2" data-name="Line 77" class="cls-1" x1="150" y1="1.5" x2="114" y2="1.5"/><line id="Line_78" data-name="Line 78" class="cls-1" x1="57.38" y1="14.73" x2="7.11" y2="14.73"/><line id="Line_79" data-name="Line 79" class="cls-1" x1="132" y1="14.73" x2="118.92" y2="14.73"/><circle id="Ellipse_118" data-name="Ellipse 118" class="cls-1" cx="96.59" cy="11.46" r="9.81"/><line id="Line_93" data-name="Line 93" class="cls-1" x1="2.71" y1="1.65" x2="19.06" y2="1.65"/><line class="cls-1" x1="19.54" y1="149.16" x2="131.54" y2="149.16"/><line class="cls-1" x1="19.54" y1="82.62" x2="131.54" y2="82.62"/><polyline class="cls-1" points="22.68 149.87 22.68 83.12 42.21 83.12 42.21 149.87"/><polyline class="cls-1" points="108.68 149.87 108.68 83.12 128.21 83.12 128.21 149.87"/><line class="cls-1" x1="22.04" y1="65.87" x2="41.04" y2="65.87"/><line class="cls-1" x1="108.54" y1="65.87" x2="127.54" y2="65.87"/><line class="cls-1" x1="22.04" y1="90.51" x2="41.04" y2="90.51"/><line class="cls-1" x1="108.54" y1="90.51" x2="127.54" y2="90.51"/><rect class="cls-1" x="25.29" y="65.87" width="12" height="15.77"/><rect class="cls-1" x="112.29" y="65.87" width="12" height="15.77"/><polyline class="cls-1" points="25.29 66.36 31.35 40.5 37.29 65.38"/><polyline class="cls-1" points="112.29 66.36 118.35 40.5 124.29 65.38"/><polygon class="cls-1" points="85.66 47.94 75.64 6 65.43 49.6 65.43 72.77 86.04 72.77 85.66 47.94"/><polygon class="cls-1" points="92.87 129.75 75.37 88.54 57.54 131.42 57.54 148.67 93.54 148.67 92.87 129.75"/><polyline class="cls-1" points="86.04 48.13 93.52 60.03 93.52 81.64 93.52 148.17"/><path class="cls-1" d="M57,148.67S58.43,81.58,58,82V59.45l7-10.34"/></svg>