<svg xmlns="http://www.w3.org/2000/svg" id="ad88b8a9-6cc8-458c-a1ba-5f5de4123dfb" data-name="Layer 1" viewBox="0 0 150 150"><title>BACities_Amsterdam</title><line id="e537e1d9-2ec5-491a-91a3-f41215b520eb" data-name="Line 77" x1="66.5" y1="1.65195" x2="32.68058" y2="1.65195" fill="none" stroke="#fff" stroke-miterlimit="10" stroke-width="3"/><line id="b86656ee-3832-43e6-80b4-2f8b123f747e" data-name="Line 78" x1="58.37958" y1="14.73095" x2="8.10816" y2="14.73095" fill="none" stroke="#fff" stroke-miterlimit="10" stroke-width="3"/><line id="bf282beb-6f5c-45ff-9c03-8561a4f2e188" data-name="Line 79" x1="115.99858" y1="14.73095" x2="74.5" y2="14.73095" fill="none" stroke="#fff" stroke-miterlimit="10" stroke-width="3"/><circle id="a0efe6f9-9031-453e-b4a0-eb7ef8f49d93" data-name="Ellipse 118" cx="138.58558" cy="11.46195" r="9.81" fill="none" stroke="#fff" stroke-miterlimit="10" stroke-width="3"/><line id="b314eba3-61e3-4326-a05a-22f932deadd1" data-name="Line 93" x1="3.71258" y1="1.65195" x2="20.06158" y2="1.65195" fill="none" stroke="#fff" stroke-miterlimit="10" stroke-width="3"/><line id="fd1e55a2-416d-4c4a-8b84-f9a063f914e4" data-name="Line 77" x1="121.5" y1="1.65195" x2="87.68058" y2="1.65195" fill="none" stroke="#fff" stroke-miterlimit="10" stroke-width="3"/><path d="M56.89037,76.78453a9.75384,9.75384,0,0,1-9.6498-9.53V54.919H39.08731V47.5885a9.63576,9.63576,0,1,0-19.27135,0V54.919H11.66269V67.25455a9.27555,9.27555,0,0,1-9.08774,9.53H1.28581V149.0521H57.61746V76.78453Z" fill="none" stroke="#fff" stroke-miterlimit="10" stroke-width="3"/><line x1="1.65641" y1="123.4805" x2="57.98806" y2="123.4805" fill="none" stroke="#fff" stroke-miterlimit="10" stroke-width="3"/><rect x="12.0333" y="83.08478" width="12.6005" height="30.76004" fill="none" stroke="#fff" stroke-miterlimit="10" stroke-width="3"/><line x1="18.33354" y1="83.08478" x2="18.33354" y2="114.21542" fill="none" stroke="#fff" stroke-miterlimit="10" stroke-width="3"/><rect x="34.64007" y="83.08478" width="11.85929" height="30.76004" fill="none" stroke="#fff" stroke-miterlimit="10" stroke-width="3"/><line x1="40.56972" y1="83.08478" x2="40.56972" y2="114.21542" fill="none" stroke="#fff" stroke-miterlimit="10" stroke-width="3"/><path d="M32.41646,68.797a2.56106,2.56106,0,0,1-2.3427,2.79905h-.21461A3.13161,3.13161,0,0,1,26.85741,68.797v-6.478c0-1.44531,1.557-2.21168,3.00174-2.21168h.21461a2.07657,2.07657,0,0,1,2.3427,2.21168Z" fill="none" stroke="#fff" stroke-miterlimit="10" stroke-width="3"/><line x1="83.61566" y1="136.01818" x2="149" y2="136.01818" fill="none" stroke="#fff" stroke-miterlimit="10" stroke-width="3"/><polyline points="137.076 136.018 132.115 121.556 88.593 121.556 83.648 136.025" fill="none" stroke="#fff" stroke-miterlimit="10" stroke-width="3"/><rect x="88.50421" y="113.20496" width="26.88702" height="8.35127" fill="none" stroke="#fff" stroke-miterlimit="10" stroke-width="3"/><path d="M135.06655,140.13334a4.10531,4.10531,0,1,1-4.10522-4.10522A4.10544,4.10544,0,0,1,135.06655,140.13334Z" fill="none" stroke="#fff" stroke-miterlimit="10" stroke-width="3"/><path d="M80.84854,132.534c-4.09685,4.09687-5.62831,2.30962-9.72518,6.40648l-.02246-.02248-5.01844-5.01863c4.09686-4.09687,5.6281-2.30941,9.725-6.40628l8.54422,8.54423" fill="none" stroke="#fff" stroke-miterlimit="10" stroke-width="3"/><line x1="94.6149" y1="113.20496" x2="94.6149" y2="121.75992" fill="none" stroke="#fff" stroke-miterlimit="10" stroke-width="3"/><line x1="101.54034" y1="113.20496" x2="101.54034" y2="121.75992" fill="none" stroke="#fff" stroke-miterlimit="10" stroke-width="3"/><line x1="108.66948" y1="113.20496" x2="108.66948" y2="121.75992" fill="none" stroke="#fff" stroke-miterlimit="10" stroke-width="3"/><polyline points="94.615 136.018 94.615 125.426 102.151 125.426 102.151 136.018" fill="none" stroke="#fff" stroke-miterlimit="10" stroke-width="3"/><polyline points="107.855 136.018 107.855 125.426 115.595 125.426 115.595 136.018" fill="none" stroke="#fff" stroke-miterlimit="10" stroke-width="3"/><path d="M83.61566,148.66245c2.0369,0,2.20439-1.8165,4.18081-1.8165,1.97683,0,1.99015,1.797,3.96678,1.797s1.96806-1.80675,3.94489-1.80675c1.97642,0,1.96468,1.792,3.94072,1.792,1.97662,0,1.98-1.8145,3.95681-1.8145h-.06981c1.97643,0,1.97643,1.81291,3.95325,1.81291,1.97642,0,1.97642-1.79859,3.95284-1.79859,1.97683,0,1.97683,1.80615,3.95345,1.80615s1.96131-1.80257,3.93813-1.80257c1.97642,0,1.96131,1.79442,3.93753,1.79442,1.97662,0,1.97662-1.81232,3.95326-1.81232h-.06961c1.97641,0,1.97641,1.81291,3.95324,1.81291,1.97642,0,1.97642-1.79859,3.95263-1.79859,1.977,0,1.977,1.81491,3.95345,1.81491l5.865-12.62478H83.61566Z" fill="none" stroke="#fff" stroke-miterlimit="10" stroke-width="3"/></svg>