<svg xmlns="http://www.w3.org/2000/svg" width="155.184" height="156.016" viewBox="0 0 155.184 156.016"><g transform="translate(0 1.5)"><line x2="55.588" transform="translate(68.667 0)" fill="none" stroke="#fff" stroke-miterlimit="10" stroke-width="3"/><line x2="26.159" transform="translate(0 0)" fill="none" stroke="#fff" stroke-miterlimit="10" stroke-width="3"/><line x2="29.429" transform="translate(58.858 13.079)" fill="none" stroke="#fff" stroke-miterlimit="10" stroke-width="3"/><line x2="13.079" transform="translate(94.826 13.079)" fill="none" stroke="#fff" stroke-miterlimit="10" stroke-width="3"/><circle cx="9.81" cy="9.81" r="9.81" transform="translate(134.064 0)" fill="none" stroke="#fff" stroke-miterlimit="10" stroke-width="3"/><path d="M56.619,41.14V54.219a9.81,9.81,0,1,1-19.619,0V41.14a6.559,6.559,0,0,1,6.54-6.54h6.54a6.644,6.644,0,0,1,6.54,6.54Z" transform="translate(31.667 30.797)" fill="none" stroke="#fff" stroke-miterlimit="10" stroke-width="3"/><path d="M24.92,37.216,35.384,34.6H55l13.079,3.27" transform="translate(33.284 43.877)" fill="none" stroke="#fff" stroke-miterlimit="10" stroke-width="3"/><line y1="13.079" transform="translate(78.477 52.318)" fill="none" stroke="#fff" stroke-miterlimit="10" stroke-width="3"/><line x1="8.436" y2="11.804" transform="translate(86.39 55.588)" fill="none" stroke="#fff" stroke-miterlimit="10" stroke-width="3"/><line x1="13.079" y2="5.591" transform="translate(88.286 68.667)" fill="none" stroke="#fff" stroke-miterlimit="10" stroke-width="3"/><line x1="8.436" y1="11.804" transform="translate(62.127 55.588)" fill="none" stroke="#fff" stroke-miterlimit="10" stroke-width="3"/><line x1="13.079" y1="5.591" transform="translate(55.588 68.667)" fill="none" stroke="#fff" stroke-miterlimit="10" stroke-width="3"/><path d="M24.74,84.137,18.2,57.978V12.2" transform="translate(24.308 13.959)" fill="none" stroke="#fff" stroke-miterlimit="10" stroke-width="3"/><path d="M36.4,55.111V40.2" transform="translate(48.616 51.356)" fill="none" stroke="#fff" stroke-miterlimit="10" stroke-width="3"/><line x2="19.619" transform="translate(32.699 22.889)" fill="none" stroke="#fff" stroke-miterlimit="10" stroke-width="3"/><path d="M28.112,8,24.5,15.23a4.042,4.042,0,1,0,7.23,0Z" transform="translate(14.397 -4.73)" fill="none" stroke="#fff" stroke-miterlimit="10" stroke-width="3"/><line x1="6.54" y2="19.619" transform="translate(52.318 107.905)" fill="none" stroke="#fff" stroke-miterlimit="10" stroke-width="3"/><path d="M87.927,141.585l-5.4-38.35a9.809,9.809,0,0,0-8.612-8.258l-14.5-1.611a13.079,13.079,0,0,1-10.508-7.687L38.879,63.108,25.8,20.6" transform="translate(16.708 12.099)" fill="none" stroke="#fff" stroke-miterlimit="10" stroke-width="3"/><line x2="13.079" y2="22.889" transform="translate(85.016 130.795)" fill="none" stroke="#fff" stroke-miterlimit="10" stroke-width="3"/><path d="M24.74,105.207l3.27-26.159L18.2,56.159,36.315,38.044" transform="translate(24.308 48.477)" fill="none" stroke="#fff" stroke-miterlimit="10" stroke-width="3"/><line x1="9.81" y2="22.889" transform="translate(58.858 130.795)" fill="none" stroke="#fff" stroke-miterlimit="10" stroke-width="3"/><line x1="8.567" y2="11.412" transform="translate(75.207 106.303)" fill="none" stroke="#fff" stroke-miterlimit="10" stroke-width="3"/><path d="M44.072,71.465,55.582,54.2l13.079,9.81L55.582,83.629" transform="translate(58.863 70.055)" fill="none" stroke="#fff" stroke-miterlimit="10" stroke-width="3"/><line x1="16.349" transform="translate(0 13.079)" fill="none" stroke="#fff" stroke-miterlimit="10" stroke-width="3"/></g></svg>