<svg xmlns="http://www.w3.org/2000/svg" id="Layer_1" data-name="Layer 1" viewBox="0 0 150 150"><defs><style>.cls-1{fill:none;stroke:#fff;stroke-miterlimit:10;stroke-width:3px;}</style></defs><title>BACities</title><line id="Line_94-2" data-name="Line 94-2" class="cls-1" x1="35.67" y1="3.45" x2="66" y2="3.45"/><line id="Line_95-2" data-name="Line 95-2" class="cls-1" y1="3.45" x2="26.16" y2="3.45"/><line id="Line_96-2" data-name="Line 96-2" class="cls-1" x1="29.86" y1="16.53" x2="59.29" y2="16.53"/><line id="Line_97-2" data-name="Line 97-2" class="cls-1" x1="127.33" y1="16.53" x2="149" y2="16.53"/><circle id="Ellipse_120-2" data-name="Ellipse 120-2" class="cls-1" cx="98.88" cy="13.26" r="9.81"/><line id="Line_108-2" data-name="Line 108-2" class="cls-1" x1="16.35" y1="16.53" y2="16.53"/><path class="cls-1" d="M22.31,146.31H130M74.84,0V14.39m5.34.42H69.06V23.7H80.18ZM64.6,79.15c6.68-21.16,6.68-54.6,6.68-54.6M94,79.57H55.26l4.23,7.62H89.75Zm7.56,26.67H47.69l5.89,7.62H95.66Zm-45.4-.85a77.76,77.76,0,0,0,5-18.2m-29,59.12c8-8,21.15-32.45,21.15-32.45M65.71,105C68.76,99.47,69.5,88,69.5,88m2-9.74c2.36-4.54,2.93-14,2.93-14m4-39.79s0,33.44,6.68,54.6m3.45,8a77.76,77.76,0,0,0,5,18.2m2.89,8.47s13.14,24.41,21.15,32.45M80.18,88S80.93,99.47,84,105m-8.7-40.63s.58,9.42,2.93,14m19.78,68-4.07-8.89a20.63,20.63,0,0,0-19.3-12.66h0a20.63,20.63,0,0,0-19.3,12.66l-4.07,8.89"/><line id="Line_94-2-2" data-name="Line 94-2" class="cls-1" x1="114" y1="3.45" x2="149" y2="3.45"/></svg>