<svg xmlns="http://www.w3.org/2000/svg" id="Layer_1" data-name="Layer 1" viewBox="0 0 150 150"><defs><style>.cls-1{fill:none;stroke:#fff;stroke-miterlimit:10;stroke-width:3px;}</style></defs><title>BACities</title><line id="Line_77" data-name="Line 77" class="cls-1" x1="119.43" y1="1.65" x2="50.76" y2="1.65"/><line id="Line_78" data-name="Line 78" class="cls-1" x1="86" y1="14.73" x2="70" y2="14.73"/><line id="Line_79" data-name="Line 79" class="cls-1" x1="61.5" y1="14.73" x2="36.11" y2="14.73"/><circle id="Ellipse_118" data-name="Ellipse 118" class="cls-1" cx="11.52" cy="11.46" r="9.81"/><line id="Line_93" data-name="Line 93" class="cls-1" x1="132.05" y1="1.65" x2="148.4" y2="1.65"/><line id="Line_78-2" data-name="Line 78" class="cls-1" x1="144" y1="14.5" x2="108" y2="14.5"/><polyline class="cls-1" points="143.43 70.28 143.43 85.86 6.31 85.86 6.31 70.28"/><line class="cls-1" x1="0.08" y1="70.28" x2="149.67" y2="70.28"/><line class="cls-1" x1="137.2" y1="54.7" x2="137.2" y2="70.28"/><line class="cls-1" x1="12.54" y1="70.28" x2="12.54" y2="54.7"/><line class="cls-1" x1="6.31" y1="54.7" x2="56.17" y2="54.7"/><line class="cls-1" x1="93.57" y1="54.7" x2="143.43" y2="54.7"/><polyline class="cls-1" points="56.17 64.05 56.17 51.58 93.57 51.58 93.57 64.05"/><line class="cls-1" x1="74.87" y1="36" x2="74.87" y2="51.58"/><line class="cls-1" x1="62.41" y1="39.12" x2="68.64" y2="51.58"/><line class="cls-1" x1="87.34" y1="39.12" x2="81.1" y2="51.58"/><line class="cls-1" x1="9.43" y1="85.86" x2="9.43" y2="148.19"/><line class="cls-1" x1="25.01" y1="85.86" x2="25.01" y2="148.19"/><line class="cls-1" x1="43.71" y1="85.86" x2="43.71" y2="148.19"/><line class="cls-1" x1="59.29" y1="85.86" x2="59.29" y2="148.19"/><line class="cls-1" x1="90.45" y1="85.86" x2="90.45" y2="148.19"/><line class="cls-1" x1="106.04" y1="85.86" x2="106.04" y2="148.19"/><line class="cls-1" x1="124.73" y1="85.86" x2="124.73" y2="148.19"/><line class="cls-1" x1="140.32" y1="85.86" x2="140.32" y2="148.19"/></svg>