<svg xmlns="http://www.w3.org/2000/svg" id="Layer_1" data-name="Layer 1" viewBox="0 0 150 150"><defs><style>.cls-1{fill:none;stroke:#fff;stroke-miterlimit:10;stroke-width:3px;}</style></defs><title>BACities</title><line id="Line_77" data-name="Line 77" class="cls-1" x1="63.5" y1="1.65" x2="29.68" y2="1.65"/><line id="Line_78" data-name="Line 78" class="cls-1" x1="55.38" y1="14.73" x2="5.11" y2="14.73"/><line id="Line_79" data-name="Line 79" class="cls-1" x1="113" y1="14.73" x2="99.92" y2="14.73"/><circle id="Ellipse_118" data-name="Ellipse 118" class="cls-1" cx="137.59" cy="11.46" r="9.81"/><line id="Line_93" data-name="Line 93" class="cls-1" x1="0.71" y1="1.65" x2="17.06" y2="1.65"/><line id="Line_77-2" data-name="Line 77" class="cls-1" x1="118.5" y1="1.65" x2="84.68" y2="1.65"/><path class="cls-1" d="M49.78,71.82c.95-5.61,2.69-12.07,5.31-16.82,4.91.81,29.41,6.5,46.41,37.5"/><path class="cls-1" d="M29.29,86.75a91.07,91.07,0,0,1,2.4-10C40.51,79.35,78.5,88.5,94.5,130.5"/><path class="cls-1" d="M127.38,87.58a25.93,25.93,0,0,0-4.9-11.23c-3.73.62-17,6.42-28,29.28"/><path class="cls-1" d="M137.33,119.68c5.53-10.3,6.17-17.66,5.48-24.43-13.52.22-37.31,10.25-43.31,35.25"/><path class="cls-1" d="M68.5,125.5c-19-25-44.42-30.59-61.56-30.59a53.41,53.41,0,0,0,4.58,20.28"/><polygon class="cls-1" points="1.68 147 146.99 147 146.99 134.37 143.83 131.21 74.33 131.21 68.02 124.89 4.84 124.89 4.84 131.21 1.68 134.37 1.68 147"/><path class="cls-1" d="M6.94,94.91S19.28,101,26.56,111.66"/><path class="cls-1" d="M32.62,77s7.89,9.39,9.73,14"/><path class="cls-1" d="M56,55.19s8.9,15.11,10.55,24.58"/></svg>