<svg xmlns="http://www.w3.org/2000/svg" id="Layer_1" data-name="Layer 1" viewBox="0 0 150 150"><defs><style>.cls-1{fill:none;stroke:#fff;stroke-miterlimit:10;stroke-width:3px;}</style></defs><title>BACities</title><line id="Line_77" data-name="Line 77" class="cls-1" x1="54" y1="1.65" x2="26" y2="1.65"/><line id="Line_78" data-name="Line 78" class="cls-1" x1="55.38" y1="14.73" x2="5.11" y2="14.73"/><line id="Line_79" data-name="Line 79" class="cls-1" x1="121" y1="14.73" x2="107.92" y2="14.73"/><circle id="Ellipse_118" data-name="Ellipse 118" class="cls-1" cx="137.59" cy="11.46" r="9.81"/><line id="Line_93" data-name="Line 93" class="cls-1" x1="0.71" y1="1.65" x2="17.06" y2="1.65"/><polygon class="cls-1" points="55.08 148 55.08 107.42 59.82 107.42 59.82 102.29 55.76 102.29 55.76 98.56 59.15 98.56 59.15 95.76 61.85 95.76 61.85 92.03 57.11 92.03 57.11 86.89 61.18 86.89 61.18 83.63 55.08 83.63 55.08 36.05 61.18 36.05 61.18 32.32 64.56 32.32 64.56 27.19 59.15 27.19 59.15 22.99 63.88 22.99 63.88 18.79 63.88 12.26 67.95 12.26 67.95 7.6 65.24 5.73 65.24 2 99.77 2 99.77 51.91 95.03 51.91 95.03 56.11 97.73 56.11 97.73 59.84 100.44 59.84 100.44 62.64 99.99 62.64 99.99 65.9 99.77 65.9 99.77 148 55.08 148"/><polyline class="cls-1" points="61.52 83.86 61.52 80.6 66.25 80.6 66.25 76.4 61.52 76.4 61.52 73.13 69.64 73.13 69.64 70.8 78.44 70.8 78.44 66.14 85.89 66.14 85.89 61.01 92.66 61.01 92.66 55.88 95.36 55.88"/><polyline class="cls-1" points="79.45 65.9 79.45 19.26 84.53 19.26 84.53 16.69 90.63 16.69 90.63 13.43 93.33 13.43 93.33 8.76 89.95 8.76 89.95 2.16"/><polyline class="cls-1" points="79.79 147.53 79.79 92.96 84.53 92.96 84.53 88.53 80.47 88.53 80.47 83.86 87.24 83.86 87.24 82 83.86 82 83.86 79.67 89.27 79.67 89.27 76.4 93.33 76.4 93.33 72.2 96.04 72.2 96.04 68.47 90.92 68.47 90.92 64.76 99.53 64.76"/><polyline class="cls-1" points="80.22 87.13 77.76 87.13 77.76 82.46 73.02 82.46 73.02 78.12 68.28 78.12 68.28 77.8 72.35 77.8 72.35 74.53 72.35 70.9"/><polyline class="cls-1" points="84.57 19.03 75.06 19.03 75.06 22.76 71.67 22.76 71.67 30.93 64.33 30.93"/></svg>