<svg xmlns="http://www.w3.org/2000/svg" width="155.184" height="155.184" viewBox="0 0 155.184 155.184"><g transform="translate(1.5 1.5)"><line x1="68.667" transform="translate(49.048 0)" fill="none" stroke="#fff" stroke-miterlimit="10" stroke-width="3"/><line x1="22.889" transform="translate(85.016 13.079)" fill="none" stroke="#fff" stroke-miterlimit="10" stroke-width="3"/><line x1="13.079" transform="translate(65.397 13.079)" fill="none" stroke="#fff" stroke-miterlimit="10" stroke-width="3"/><circle cx="9.81" cy="9.81" r="9.81" transform="translate(0 0)" fill="none" stroke="#fff" stroke-miterlimit="10" stroke-width="3"/><circle cx="9.81" cy="9.81" r="9.81" transform="translate(117.715 78.477)" fill="none" stroke="#fff" stroke-miterlimit="10" stroke-width="3"/><rect width="45.778" height="45.778" transform="translate(104.636 65.397)" fill="none" stroke="#fff" stroke-miterlimit="10" stroke-width="3"/><path d="M88.9,96.708V54.2H56.2V96.708" transform="translate(54.975 56.975)" fill="none" stroke="#fff" stroke-miterlimit="10" stroke-width="3"/><path d="M88.9,43.949v-3.27L82.359,27.6H62.74L56.2,40.679v3.27" transform="translate(54.975 21.448)" fill="none" stroke="#fff" stroke-miterlimit="10" stroke-width="3"/><rect width="19.619" height="13.079" transform="translate(117.715 35.968)" fill="none" stroke="#fff" stroke-miterlimit="10" stroke-width="3"/><path d="M78.619,38.829v-3.27L68.81,9.4,59,35.559v3.27" transform="translate(58.715 -2.86)" fill="none" stroke="#fff" stroke-miterlimit="10" stroke-width="3"/><line y2="16.349" transform="translate(150.414 49.048)" fill="none" stroke="#fff" stroke-miterlimit="10" stroke-width="3"/><line y2="16.349" transform="translate(104.636 49.048)" fill="none" stroke="#fff" stroke-miterlimit="10" stroke-width="3"/><rect width="39.238" height="32.699" transform="translate(0 107.905)" fill="none" stroke="#fff" stroke-miterlimit="10" stroke-width="3"/><path d="M37.559,60.279V57.01L32.888,47.2H16.071L11.4,57.01v3.27" transform="translate(-4.86 47.626)" fill="none" stroke="#fff" stroke-miterlimit="10" stroke-width="3"/><line y2="22.889" transform="translate(39.238 85.016)" fill="none" stroke="#fff" stroke-miterlimit="10" stroke-width="3"/><line y2="22.889" transform="translate(0 85.016)" fill="none" stroke="#fff" stroke-miterlimit="10" stroke-width="3"/><line y2="32.699" transform="translate(127.525 120.985)" fill="none" stroke="#fff" stroke-miterlimit="10" stroke-width="3"/><path d="M14.2,78.019H27.279V64.94a6.54,6.54,0,1,0-13.079,0Z" transform="translate(-1.121 62.585)" fill="none" stroke="#fff" stroke-miterlimit="10" stroke-width="3"/><rect width="39.238" height="32.699" transform="translate(52.318 107.905)" fill="none" stroke="#fff" stroke-miterlimit="10" stroke-width="3"/><path d="M59.959,60.279V57.01L55.288,47.2H38.471L33.8,57.01v3.27" transform="translate(25.058 47.626)" fill="none" stroke="#fff" stroke-miterlimit="10" stroke-width="3"/><line y2="22.889" transform="translate(91.556 85.016)" fill="none" stroke="#fff" stroke-miterlimit="10" stroke-width="3"/><line y2="22.889" transform="translate(52.318 85.016)" fill="none" stroke="#fff" stroke-miterlimit="10" stroke-width="3"/><path d="M36.6,78.019H49.679V64.94a6.54,6.54,0,1,0-13.079,0Z" transform="translate(28.797 62.585)" fill="none" stroke="#fff" stroke-miterlimit="10" stroke-width="3"/><line x2="13.079" transform="translate(39.238 117.715)" fill="none" stroke="#fff" stroke-miterlimit="10" stroke-width="3"/><line y2="13.079" transform="translate(91.556 140.604)" fill="none" stroke="#fff" stroke-miterlimit="10" stroke-width="3"/><line y2="13.079" transform="translate(0 140.604)" fill="none" stroke="#fff" stroke-miterlimit="10" stroke-width="3"/><line y2="13.079" transform="translate(39.238 140.604)" fill="none" stroke="#fff" stroke-miterlimit="10" stroke-width="3"/><line y2="13.079" transform="translate(52.318 140.604)" fill="none" stroke="#fff" stroke-miterlimit="10" stroke-width="3"/><line x2="19.619" transform="translate(91.556 130.795)" fill="none" stroke="#fff" stroke-miterlimit="10" stroke-width="3"/><line x2="16.349" transform="translate(137.334 0)" fill="none" stroke="#fff" stroke-miterlimit="10" stroke-width="3"/></g></svg>