<svg xmlns="http://www.w3.org/2000/svg" id="Layer_1" data-name="Layer 1" viewBox="0 0 150 150"><defs><style>.cls-1{fill:none;stroke:#fff;stroke-miterlimit:10;stroke-width:3px;}</style></defs><title>BACities</title><line id="Line_97-2" data-name="Line 97-2" class="cls-1" y1="16.53" x2="39.5" y2="16.53"/><line id="Line_94-2" data-name="Line 94-2" class="cls-1" y1="3.45" x2="79" y2="3.45"/><path class="cls-1" d="M93.05,68.32a6.28,6.28,0,1,0,6.28,6.28A6.29,6.29,0,0,0,93.05,68.32Z"/><rect class="cls-1" x="44" y="64.1" width="5.09" height="13.58"/><rect class="cls-1" x="54.61" y="64.1" width="5.09" height="13.58"/><rect class="cls-1" x="78.84" y="88.68" width="5.09" height="13.58"/><rect class="cls-1" x="90.34" y="88.68" width="5.09" height="13.58"/><rect class="cls-1" x="101.84" y="88.68" width="5.09" height="13.58"/><path class="cls-1" d="M38.21,150.11V55.56a1.51,1.51,0,0,1,1.51-1.51h1.73V48.41A1.52,1.52,0,0,1,43,46.89h1.48V31.59A1.52,1.52,0,0,1,46,30.07h3.48v-16h4.6v16h3.7a1.52,1.52,0,0,1,1.52,1.52v15.3h1.47a1.52,1.52,0,0,1,1.52,1.52v5.64H64a1.51,1.51,0,0,1,1.52,1.51v84l7.75-.23V83.65a1.52,1.52,0,0,1,1.51-1.52h3.3a67.82,67.82,0,0,1,4.42-15.38v-22A1.52,1.52,0,0,1,84,43.26h.78V38a8.76,8.76,0,0,1-.3-2.28c0-3,2.12-13.79,6.78-15.77,0,0,1.78-20.17,1.52-19.91s1.52,19.92,1.52,19.92c4.48,1.94,7.3,12,7.3,15.76a9.19,9.19,0,0,1-.29,2.28v5.3h.25a1.52,1.52,0,0,1,1.52,1.52V65.59A65.7,65.7,0,0,1,108,82.13h3.3a1.52,1.52,0,0,1,1.52,1.52v25.62h9.68v-2.51a1.52,1.52,0,0,1,1.51-1.52h7.54a1.52,1.52,0,0,1,1.51,1.52v43.35"/><line id="Line_97-2-2" data-name="Line 97-2" class="cls-1" x1="115" y1="16.53" x2="149.5" y2="16.53"/><line id="Line_97-2-3" data-name="Line 97-2" class="cls-1" x1="107.5" y1="3.53" x2="149.5" y2="3.53"/></svg>