<svg xmlns="http://www.w3.org/2000/svg" id="Layer_1" data-name="Layer 1" viewBox="0 0 150 150"><defs><style>.cls-1{fill:none;stroke:#fff;stroke-miterlimit:10;stroke-width:3px;}</style></defs><title>BACities</title><line id="Line_97-2" data-name="Line 97-2" class="cls-1" x1="72" y1="16.53" x2="149" y2="16.53"/><circle id="Ellipse_120-2" data-name="Ellipse 120-2" class="cls-1" cx="48.88" cy="13.26" r="9.81"/><line id="Line_94-2" data-name="Line 94-2" class="cls-1" x1="94" y1="3.45" x2="149" y2="3.45"/><polygon class="cls-1" points="25.2 49.95 29.74 148.06 8.73 148.06 13.27 49.95 25.2 49.95"/><polyline class="cls-1" points="24.86 49.95 29.73 148.06 19.24 148.06"/><rect class="cls-1" x="14.83" y="32.35" width="8.8" height="16.67"/><polygon class="cls-1" points="21.37 14.59 23.64 32.35 14.83 32.35 17.1 14.59 21.37 14.59"/><polyline class="cls-1" points="19.24 1 19.24 14.59 21.36 14.59 23.63 33.75"/><line class="cls-1" x1="9.1" y1="135.66" x2="29.37" y2="135.66"/><line class="cls-1" x1="9.1" y1="125.32" x2="29.37" y2="125.32"/><line class="cls-1" x1="10.37" y1="114.98" x2="28.08" y2="114.98"/><line class="cls-1" x1="10.89" y1="104.64" x2="27.58" y2="104.64"/><line class="cls-1" x1="11.4" y1="94.29" x2="27.07" y2="94.29"/><line class="cls-1" x1="11.91" y1="83.95" x2="26.56" y2="83.95"/><line class="cls-1" x1="12.3" y1="73.61" x2="26.17" y2="73.61"/><line class="cls-1" x1="12.55" y1="63.27" x2="25.92" y2="63.27"/><polyline class="cls-1" points="24.86 62.92 32.73 49.58 5.73 49.58 13.74 62.92"/><polyline class="cls-1" points="23.15 24.32 32.15 24.32 29.32 32.35 23.59 32.35"/><polyline class="cls-1" points="15.15 24.32 6.15 24.32 8.98 32.35 14.71 32.35"/><path class="cls-1" d="M140.19,148.06H29.49V132.61l37.35-40s3.48-2.35,10.82-2.35,10.82,2.35,10.82,2.35l30.86,33.08Z"/><path class="cls-1" d="M28.87,133.33l6.37-6.83,1,1.42a5.43,5.43,0,0,0,7.25,1.85l3-1.73a5.19,5.19,0,0,1,5.8.37l2.59,1.9a5.18,5.18,0,0,0,5.29.63l14-6.23a5.12,5.12,0,0,1,2.1-.45H87.83a5.46,5.46,0,0,1,3.41,1.25l2.61,2.13a5.22,5.22,0,0,0,5.59.77l6-2.78a5.21,5.21,0,0,1,5.59.78l.42.33a5.28,5.28,0,0,0,7.25-.38l.66-.65,20.85,22.35"/><path class="cls-1" d="M70.15,102.15s-7,9-10.3,11"/><path class="cls-1" d="M77.66,100.23a53.88,53.88,0,0,0,2,14.8"/></svg>